<svg width="1440" height="138" viewBox="0 0 1440 138" fill="none" xmlns="http://www.w3.org/2000/svg">
<path d="M1440 82.3389L1418.2 86.9059C1396.4 91.8175 1353 100.434 1309 68.5519C1265.5 36.6694 1222 1.27917 1178 1.53768C1134.5 1.27917 1091 36.6694 1047 54.7649C1003.6 72.8604 960 36.6694 916 40.9779C872.7 45.2863 829 91.8175 785 77.772C736 54.7649 698 10.413 655 1.5376C610.9 -7.68248 567 27.1908 524 36.4109C480 45.2863 436 9.09537 393 17.9708C349.1 27.1908 305 82.3389 262 100.693C218.2 119.392 175 100.434 131 82.3389C87.3 64.2435 44 45.2863 22 36.4109L0 27.1908V137.487H21.8C43.6001 137.487 87 137.487 131 137.487C174.5 137.487 218 137.487 262 137.487C305.5 137.487 349 137.487 393 137.487C436.4 137.487 480 137.487 524 137.487C567.3 137.487 611 137.487 655 137.487C698.2 137.487 742 137.487 785 137.487C829.1 137.487 873 137.487 916 137.487C960 137.487 1004 137.487 1047 137.487C1090.9 137.487 1135 137.487 1178 137.487C1221.8 137.487 1265 137.487 1309 137.487C1352.7 137.487 1396 137.487 1418 137.487H1440V109.74V82.3389Z" fill="#77CAD1"/>
</svg>
