<svg width="1440" height="148" viewBox="0 0 1440 148" fill="none" xmlns="http://www.w3.org/2000/svg">
<path d="M0 88.4693L21.8 93.3763C43.6 98.6536 87 107.912 131 73.6558C174.5 39.3996 218 1.37441 262 1.65216C305.5 1.37441 349 39.3995 393 58.8423C436.4 78.285 480 39.3996 524 44.0288C567.3 48.658 611 98.6536 655 83.5623C704 58.8423 742 11.1883 785 1.65207C829.1 -8.25446 873 29.2153 916 39.1218C960 48.658 1004 9.77254 1047 19.3087C1090.9 29.2153 1135 88.4693 1178 108.19C1221.8 128.281 1265 107.912 1309 88.4693C1352.7 69.0266 1396 48.658 1418 39.1218L1440 29.2153V147.723H1418.2C1396.4 147.723 1353 147.723 1309 147.723C1265.5 147.723 1222 147.723 1178 147.723C1134.5 147.723 1091 147.723 1047 147.723C1003.6 147.723 960 147.723 916 147.723C872.7 147.723 829 147.723 785 147.723C741.8 147.723 698 147.723 655 147.723C610.9 147.723 567 147.723 524 147.723C480 147.723 436 147.723 393 147.723C349.1 147.723 305 147.723 262 147.723C218.2 147.723 175 147.723 131 147.723C87.3 147.723 44 147.723 22 147.723H0V88.4693Z" fill="#C4BEEC"/>
</svg>
